<svg width="32" height="32" viewBox="0 0 32 32" fill="none" xmlns="http://www.w3.org/2000/svg">
<path d="M14.6667 2.66675C9.63835 2.66675 7.1242 2.66675 5.56209 4.17173C4 5.67672 4 8.09896 4 12.9435V23.9745C4 27.049 4 28.5862 5.03047 29.1365C7.02596 30.2019 10.7691 26.647 12.5467 25.5766C13.5776 24.9558 14.0931 24.6454 14.6667 24.6454C15.2403 24.6454 15.7557 24.9558 16.7867 25.5766C18.5643 26.647 22.3073 30.2019 24.3029 29.1365C25.3333 28.5862 25.3333 27.049 25.3333 23.9745V17.3334" stroke="#3399FF" stroke-width="2" stroke-linecap="round" stroke-linejoin="round"/>
<path d="M22.6654 13.3332V2.6665M17.332 7.99984H27.9987" stroke="#3399FF" stroke-width="2" stroke-linecap="round"/>
</svg>
