<svg width="32" height="32" viewBox="0 0 32 32" fill="none" xmlns="http://www.w3.org/2000/svg">
<path d="M21.3346 2.66663V7.99996M10.668 2.66663V7.99996" stroke="#FF4C4C" stroke-width="2" stroke-linecap="round" stroke-linejoin="round"/>
<path d="M17.3333 5.33337H14.6667C9.63835 5.33337 7.1242 5.33337 5.56209 6.89547C4 8.45757 4 10.9717 4 16V18.6667C4 23.695 4 26.2092 5.56209 27.7712C7.1242 29.3334 9.63835 29.3334 14.6667 29.3334H17.3333C22.3616 29.3334 24.8759 29.3334 26.4379 27.7712C28 26.2092 28 23.695 28 18.6667V16C28 10.9717 28 8.45757 26.4379 6.89547C24.8759 5.33337 22.3616 5.33337 17.3333 5.33337Z" stroke="#FF4C4C" stroke-width="2" stroke-linecap="round" stroke-linejoin="round"/>
<path d="M4 13.3334H28" stroke="#FF4C4C" stroke-width="2" stroke-linecap="round" stroke-linejoin="round"/>
<path d="M19.3346 18L16.0013 21.3333M16.0013 21.3333L12.668 24.6667M16.0013 21.3333L19.3346 24.6667M16.0013 21.3333L12.668 18" stroke="#FF4C4C" stroke-width="2" stroke-linecap="round" stroke-linejoin="round"/>
</svg>
