<svg width="40" height="40" viewBox="0 0 40 40" fill="none" xmlns="http://www.w3.org/2000/svg">
<path d="M0 12C0 5.37257 5.37258 0 12 0H28.003C34.6304 0 40.003 5.37258 40.003 12V28.003C40.003 34.6304 34.6304 40.003 28.003 40.003H12C5.37258 40.003 0 34.6304 0 28.003V12Z" fill="white" fill-opacity="0.1"/>
<path d="M32.003 20.075C32.003 13.406 26.63 8 20.003 8C13.373 8.0015 8 13.406 8 20.0765C8 26.102 12.389 31.097 18.125 32.003V23.5655H15.08V20.0765H18.128V17.414C18.128 14.3885 19.9205 12.7175 22.661 12.7175C23.975 12.7175 25.3475 12.953 25.3475 12.953V15.923H23.834C22.3445 15.923 21.8795 16.8545 21.8795 17.81V20.075H25.2065L24.6755 23.564H21.878V32.0015C27.614 31.0955 32.003 26.1005 32.003 20.075Z" fill="white"/>
</svg>
