<svg width="398" height="367" viewBox="0 0 398 367" fill="none" xmlns="http://www.w3.org/2000/svg">
<path d="M0 8C0 3.58172 3.58172 0 8 0H390C394.418 0 398 3.58172 398 8V359C398 363.418 394.418 367 390 367H7.99999C3.58171 367 0 363.418 0 359V8Z" fill="url(#paint0_linear_104_9127)"/>
<path d="M149.345 24.4531C149.279 23.8329 149 23.3499 148.507 23.0043C148.02 22.6586 147.385 22.4858 146.604 22.4858C146.055 22.4858 145.584 22.5687 145.191 22.7344C144.798 22.9001 144.497 23.125 144.289 23.4091C144.08 23.6932 143.974 24.0175 143.969 24.3821C143.969 24.6851 144.038 24.9479 144.175 25.1705C144.317 25.393 144.509 25.5824 144.75 25.7386C144.992 25.8902 145.259 26.018 145.553 26.1222C145.846 26.2263 146.142 26.3139 146.441 26.3849L147.804 26.7259C148.353 26.8537 148.881 27.0265 149.388 27.2443C149.899 27.4621 150.356 27.7367 150.759 28.0682C151.166 28.3996 151.488 28.7997 151.725 29.2685C151.961 29.7372 152.08 30.2865 152.08 30.9162C152.08 31.7685 151.862 32.5189 151.426 33.1676C150.991 33.8116 150.361 34.3158 149.537 34.6804C148.718 35.0402 147.726 35.2202 146.561 35.2202C145.43 35.2202 144.447 35.045 143.614 34.6946C142.785 34.3442 142.137 33.8329 141.668 33.1605C141.204 32.4882 140.953 31.669 140.915 30.7031H143.507C143.545 31.2098 143.701 31.6312 143.976 31.9673C144.251 32.3035 144.608 32.5545 145.048 32.7202C145.494 32.8859 145.991 32.9688 146.54 32.9688C147.113 32.9688 147.615 32.8835 148.046 32.7131C148.481 32.5379 148.822 32.2964 149.068 31.9886C149.315 31.6761 149.44 31.3116 149.445 30.8949C149.44 30.5161 149.329 30.2036 149.111 29.9574C148.893 29.7064 148.588 29.4981 148.195 29.3324C147.807 29.1619 147.352 29.0104 146.831 28.8778L145.176 28.4517C143.978 28.1439 143.031 27.6776 142.335 27.0526C141.644 26.4228 141.298 25.5871 141.298 24.5455C141.298 23.6884 141.53 22.938 141.994 22.294C142.463 21.6501 143.1 21.1506 143.905 20.7955C144.71 20.4356 145.621 20.2557 146.639 20.2557C147.672 20.2557 148.576 20.4356 149.352 20.7955C150.134 21.1506 150.747 21.6454 151.192 22.2798C151.637 22.9096 151.867 23.634 151.881 24.4531H149.345ZM159.763 24.0909V26.0795H153.491V24.0909H159.763ZM155.04 21.4773H157.611V31.7188C157.611 32.0644 157.663 32.3295 157.767 32.5142C157.876 32.6941 158.018 32.8172 158.193 32.8835C158.368 32.9498 158.562 32.983 158.775 32.983C158.936 32.983 159.083 32.9711 159.216 32.9474C159.353 32.9238 159.457 32.9025 159.528 32.8835L159.961 34.8935C159.824 34.9408 159.628 34.9929 159.372 35.0497C159.121 35.1065 158.813 35.1397 158.449 35.1491C157.805 35.1681 157.225 35.071 156.709 34.858C156.193 34.6402 155.783 34.304 155.48 33.8494C155.182 33.3949 155.035 32.8267 155.04 32.1449V21.4773ZM168.866 30.4119V24.0909H171.437V35H168.944V33.0611H168.83C168.584 33.6719 168.179 34.1714 167.616 34.5597C167.057 34.9479 166.368 35.142 165.549 35.142C164.834 35.142 164.202 34.9834 163.653 34.6662C163.108 34.3442 162.682 33.8778 162.374 33.267C162.067 32.6515 161.913 31.9081 161.913 31.0369V24.0909H164.484V30.6392C164.484 31.3305 164.673 31.8797 165.052 32.2869C165.431 32.6941 165.928 32.8977 166.544 32.8977C166.922 32.8977 167.289 32.8054 167.644 32.6207C167.999 32.4361 168.291 32.1615 168.518 31.7969C168.75 31.4276 168.866 30.9659 168.866 30.4119ZM178.129 35.1918C177.272 35.1918 176.505 34.9716 175.828 34.5312C175.151 34.0909 174.616 33.4517 174.223 32.6136C173.83 31.7756 173.633 30.7576 173.633 29.5597C173.633 28.3475 173.832 27.3248 174.23 26.4915C174.632 25.6534 175.175 25.0213 175.856 24.5952C176.538 24.1643 177.298 23.9489 178.136 23.9489C178.775 23.9489 179.301 24.0578 179.713 24.2756C180.125 24.4886 180.452 24.7467 180.693 25.0497C180.934 25.348 181.122 25.6297 181.254 25.8949H181.361V20.4545H183.939V35H181.41V33.2812H181.254C181.122 33.5464 180.93 33.8281 180.679 34.1264C180.428 34.42 180.096 34.6709 179.684 34.8793C179.273 35.0876 178.754 35.1918 178.129 35.1918ZM178.846 33.0824C179.391 33.0824 179.855 32.9356 180.238 32.642C180.622 32.3437 180.913 31.9295 181.112 31.3991C181.311 30.8688 181.41 30.2509 181.41 29.5455C181.41 28.84 181.311 28.2268 181.112 27.706C180.918 27.1851 180.629 26.7803 180.246 26.4915C179.867 26.2027 179.4 26.0582 178.846 26.0582C178.273 26.0582 177.795 26.2074 177.412 26.5057C177.028 26.804 176.739 27.2159 176.545 27.7415C176.351 28.267 176.254 28.8684 176.254 29.5455C176.254 30.2273 176.351 30.8357 176.545 31.3707C176.744 31.901 177.035 32.3201 177.419 32.6278C177.807 32.9309 178.283 33.0824 178.846 33.0824ZM188.276 39.0909C187.926 39.0909 187.602 39.0625 187.303 39.0057C187.01 38.9536 186.776 38.892 186.6 38.821L187.197 36.8182C187.571 36.9271 187.905 36.9792 188.198 36.9744C188.492 36.9697 188.75 36.8774 188.972 36.6974C189.2 36.5223 189.392 36.2287 189.548 35.8168L189.768 35.2273L185.812 24.0909H188.539L191.053 32.3295H191.167L193.688 24.0909H196.423L192.055 36.321C191.851 36.8987 191.581 37.3935 191.245 37.8054C190.909 38.2221 190.497 38.5393 190.009 38.7571C189.526 38.9796 188.949 39.0909 188.276 39.0909ZM202.637 22.6634V20.4545H214.242V22.6634H209.747V35H207.133V22.6634H202.637ZM216.366 35V24.0909H218.937V35H216.366ZM217.659 22.5426C217.251 22.5426 216.901 22.4077 216.607 22.1378C216.314 21.8632 216.167 21.5341 216.167 21.1506C216.167 20.7623 216.314 20.4332 216.607 20.1634C216.901 19.8887 217.251 19.7514 217.659 19.7514C218.07 19.7514 218.421 19.8887 218.71 20.1634C219.003 20.4332 219.15 20.7623 219.15 21.1506C219.15 21.5341 219.003 21.8632 218.71 22.1378C218.421 22.4077 218.07 22.5426 217.659 22.5426ZM221.581 35V24.0909H224.038V25.9446H224.166C224.393 25.3196 224.77 24.8319 225.295 24.4815C225.821 24.1264 226.448 23.9489 227.177 23.9489C227.916 23.9489 228.539 24.1288 229.045 24.4886C229.557 24.8437 229.916 25.3291 230.125 25.9446H230.238C230.48 25.3385 230.887 24.8556 231.46 24.4957C232.038 24.1312 232.722 23.9489 233.513 23.9489C234.516 23.9489 235.336 24.2661 235.97 24.9006C236.604 25.535 236.922 26.4607 236.922 27.6776V35H234.344V28.0753C234.344 27.3982 234.164 26.9034 233.804 26.5909C233.444 26.2737 233.004 26.1151 232.483 26.1151C231.863 26.1151 231.377 26.3092 231.027 26.6974C230.681 27.081 230.508 27.5805 230.508 28.196V35H227.987V27.9688C227.987 27.4053 227.817 26.9555 227.476 26.6193C227.14 26.2831 226.699 26.1151 226.155 26.1151C225.785 26.1151 225.449 26.2098 225.146 26.3991C224.843 26.5838 224.602 26.8466 224.422 27.1875C224.242 27.5237 224.152 27.9167 224.152 28.3665V35H221.581ZM244.36 35.2131C243.266 35.2131 242.321 34.9858 241.526 34.5312C240.735 34.072 240.127 33.4233 239.7 32.5852C239.274 31.7424 239.061 30.7505 239.061 29.6094C239.061 28.4872 239.274 27.5024 239.7 26.6548C240.131 25.8026 240.733 25.1397 241.504 24.6662C242.276 24.188 243.183 23.9489 244.225 23.9489C244.897 23.9489 245.531 24.0578 246.128 24.2756C246.729 24.4886 247.26 24.8201 247.719 25.2699C248.183 25.7197 248.548 26.2926 248.813 26.9886C249.078 27.6799 249.21 28.5038 249.21 29.4602V30.2486H240.269V28.5156H246.746C246.741 28.0232 246.635 27.5852 246.426 27.2017C246.218 26.8134 245.927 26.508 245.553 26.2855C245.183 26.063 244.753 25.9517 244.26 25.9517C243.735 25.9517 243.273 26.0795 242.875 26.3352C242.477 26.5862 242.167 26.9176 241.945 27.3295C241.727 27.7367 241.616 28.1842 241.611 28.6719V30.1847C241.611 30.8191 241.727 31.3636 241.959 31.8182C242.191 32.268 242.515 32.6136 242.932 32.8551C243.349 33.0919 243.836 33.2102 244.395 33.2102C244.769 33.2102 245.108 33.1581 245.411 33.054C245.714 32.9451 245.977 32.7865 246.199 32.5781C246.422 32.3698 246.59 32.1117 246.703 31.804L249.104 32.0739C248.952 32.7083 248.664 33.2623 248.237 33.7358C247.816 34.2045 247.276 34.5691 246.618 34.8295C245.96 35.0852 245.207 35.2131 244.36 35.2131ZM251.385 35V24.0909H253.878V25.9091H253.992C254.191 25.2794 254.532 24.794 255.015 24.4531C255.502 24.1075 256.059 23.9347 256.684 23.9347C256.826 23.9347 256.984 23.9418 257.16 23.956C257.34 23.9654 257.489 23.982 257.607 24.0057V26.3707C257.498 26.3329 257.325 26.2997 257.089 26.2713C256.857 26.2382 256.632 26.2216 256.414 26.2216C255.945 26.2216 255.524 26.3234 255.15 26.527C254.78 26.7259 254.489 27.0028 254.276 27.358C254.063 27.7131 253.956 28.1226 253.956 28.5866V35H251.385Z" fill="white"/>
<path d="M279 152C279 196.183 243.183 232 199 232C154.817 232 119 196.183 119 152C119 107.817 154.817 72 199 72C243.183 72 279 107.817 279 152ZM130.397 152C130.397 189.888 161.112 220.603 199 220.603C236.888 220.603 267.603 189.888 267.603 152C267.603 114.112 236.888 83.3971 199 83.3971C161.112 83.3971 130.397 114.112 130.397 152Z" fill="white" fill-opacity="0.18"/>
<path d="M199 77.6986C199 74.5513 201.555 71.9789 204.694 72.2028C219.255 73.2417 233.294 78.2496 245.263 86.7333C258.785 96.3183 268.997 109.867 274.486 125.506C279.975 141.146 280.471 158.104 275.905 174.038C271.339 189.971 261.937 204.093 248.997 214.452C236.058 224.811 220.221 230.895 203.674 231.863C187.128 232.832 170.689 228.637 156.63 219.858C142.57 211.08 131.585 198.151 125.191 182.859C119.532 169.324 117.718 154.529 119.891 140.094C120.359 136.982 123.429 135.052 126.499 135.74C129.57 136.429 131.477 139.476 131.045 142.593C129.367 154.717 130.959 167.107 135.706 178.463C141.189 191.576 150.61 202.663 162.666 210.191C174.722 217.719 188.819 221.316 203.008 220.486C217.198 219.655 230.779 214.438 241.875 205.555C252.97 196.672 261.033 184.562 264.949 170.898C268.864 157.235 268.439 142.692 263.732 129.281C259.025 115.869 250.268 104.251 238.672 96.0314C228.631 88.9137 216.889 84.649 204.692 83.6336C201.556 83.3725 199 80.8458 199 77.6986Z" fill="white"/>
<path d="M155.021 149V145.955L163.101 138.034C163.874 137.254 164.518 136.561 165.033 135.955C165.548 135.348 165.934 134.761 166.192 134.193C166.449 133.625 166.578 133.019 166.578 132.375C166.578 131.64 166.411 131.011 166.078 130.489C165.745 129.958 165.286 129.549 164.703 129.261C164.12 128.973 163.457 128.83 162.714 128.83C161.949 128.83 161.279 128.989 160.703 129.307C160.127 129.617 159.68 130.061 159.362 130.636C159.052 131.212 158.896 131.898 158.896 132.693H154.885C154.885 131.216 155.222 129.932 155.896 128.841C156.571 127.75 157.499 126.905 158.68 126.307C159.87 125.708 161.233 125.409 162.771 125.409C164.332 125.409 165.703 125.701 166.885 126.284C168.067 126.867 168.983 127.667 169.635 128.682C170.294 129.697 170.624 130.856 170.624 132.159C170.624 133.03 170.457 133.886 170.124 134.727C169.79 135.568 169.203 136.5 168.362 137.523C167.529 138.545 166.358 139.784 164.851 141.239L160.839 145.318V145.477H170.976V149H155.021ZM182.987 149.318C181.472 149.318 180.116 149.034 178.919 148.466C177.722 147.89 176.771 147.102 176.067 146.102C175.37 145.102 174.999 143.958 174.953 142.67H179.044C179.12 143.625 179.533 144.405 180.283 145.011C181.033 145.61 181.934 145.909 182.987 145.909C183.813 145.909 184.548 145.72 185.192 145.341C185.836 144.962 186.343 144.436 186.714 143.761C187.086 143.087 187.268 142.318 187.26 141.455C187.268 140.576 187.082 139.795 186.703 139.114C186.324 138.432 185.805 137.898 185.146 137.511C184.487 137.117 183.73 136.92 182.874 136.92C182.177 136.913 181.491 137.042 180.817 137.307C180.143 137.572 179.608 137.92 179.214 138.352L175.408 137.727L176.624 125.727H190.124V129.25H180.112L179.442 135.42H179.578C180.01 134.913 180.62 134.492 181.408 134.159C182.196 133.818 183.059 133.648 183.999 133.648C185.408 133.648 186.665 133.981 187.771 134.648C188.877 135.307 189.749 136.216 190.385 137.375C191.021 138.534 191.339 139.86 191.339 141.352C191.339 142.89 190.983 144.261 190.271 145.466C189.567 146.663 188.586 147.606 187.328 148.295C186.078 148.977 184.631 149.318 182.987 149.318ZM197.726 146.205C197.036 146.205 196.446 145.962 195.953 145.477C195.461 144.985 195.218 144.394 195.226 143.705C195.218 143.023 195.461 142.439 195.953 141.955C196.446 141.47 197.036 141.227 197.726 141.227C198.393 141.227 198.972 141.47 199.464 141.955C199.964 142.439 200.218 143.023 200.226 143.705C200.218 144.167 200.097 144.587 199.862 144.966C199.635 145.345 199.332 145.648 198.953 145.875C198.582 146.095 198.173 146.205 197.726 146.205ZM197.726 134.67C197.036 134.67 196.446 134.428 195.953 133.943C195.461 133.451 195.218 132.86 195.226 132.17C195.218 131.489 195.461 130.905 195.953 130.42C196.446 129.928 197.036 129.682 197.726 129.682C198.393 129.682 198.972 129.928 199.464 130.42C199.964 130.905 200.218 131.489 200.226 132.17C200.218 132.625 200.097 133.042 199.862 133.42C199.635 133.799 199.332 134.102 198.953 134.33C198.582 134.557 198.173 134.67 197.726 134.67ZM213.03 149.443C211.159 149.443 209.553 148.97 208.212 148.023C206.878 147.068 205.852 145.693 205.132 143.898C204.42 142.095 204.064 139.924 204.064 137.386C204.071 134.848 204.431 132.689 205.143 130.909C205.863 129.121 206.89 127.758 208.223 126.818C209.564 125.879 211.166 125.409 213.03 125.409C214.893 125.409 216.496 125.879 217.837 126.818C219.178 127.758 220.204 129.121 220.916 130.909C221.636 132.697 221.996 134.856 221.996 137.386C221.996 139.932 221.636 142.106 220.916 143.909C220.204 145.705 219.178 147.076 217.837 148.023C216.503 148.97 214.901 149.443 213.03 149.443ZM213.03 145.886C214.484 145.886 215.632 145.17 216.473 143.739C217.321 142.299 217.746 140.182 217.746 137.386C217.746 135.538 217.553 133.985 217.166 132.727C216.78 131.47 216.234 130.523 215.53 129.886C214.825 129.242 213.992 128.92 213.03 128.92C211.583 128.92 210.439 129.64 209.598 131.08C208.757 132.511 208.333 134.614 208.325 137.386C208.318 139.242 208.503 140.803 208.882 142.068C209.268 143.333 209.814 144.288 210.518 144.932C211.223 145.568 212.06 145.886 213.03 145.886ZM234.374 149.443C232.502 149.443 230.896 148.97 229.555 148.023C228.222 147.068 227.196 145.693 226.476 143.898C225.764 142.095 225.408 139.924 225.408 137.386C225.415 134.848 225.775 132.689 226.487 130.909C227.207 129.121 228.233 127.758 229.567 126.818C230.908 125.879 232.51 125.409 234.374 125.409C236.237 125.409 237.839 125.879 239.18 126.818C240.521 127.758 241.548 129.121 242.26 130.909C242.98 132.697 243.339 134.856 243.339 137.386C243.339 139.932 242.98 142.106 242.26 143.909C241.548 145.705 240.521 147.076 239.18 148.023C237.847 148.97 236.245 149.443 234.374 149.443ZM234.374 145.886C235.828 145.886 236.976 145.17 237.817 143.739C238.665 142.299 239.089 140.182 239.089 137.386C239.089 135.538 238.896 133.985 238.51 132.727C238.124 131.47 237.578 130.523 236.874 129.886C236.169 129.242 235.336 128.92 234.374 128.92C232.927 128.92 231.783 129.64 230.942 131.08C230.101 132.511 229.677 134.614 229.669 137.386C229.661 139.242 229.847 140.803 230.226 142.068C230.612 143.333 231.158 144.288 231.862 144.932C232.567 145.568 233.404 145.886 234.374 145.886Z" fill="white"/>
<path d="M156.419 176V164.364H163.635V165.875H158.175V169.42H163.118V170.926H158.175V176H156.419ZM168.693 176.176C167.875 176.176 167.161 175.989 166.551 175.614C165.941 175.239 165.468 174.714 165.131 174.04C164.794 173.366 164.625 172.578 164.625 171.676C164.625 170.771 164.794 169.979 165.131 169.301C165.468 168.623 165.941 168.097 166.551 167.722C167.161 167.347 167.875 167.159 168.693 167.159C169.511 167.159 170.225 167.347 170.835 167.722C171.445 168.097 171.919 168.623 172.256 169.301C172.593 169.979 172.761 170.771 172.761 171.676C172.761 172.578 172.593 173.366 172.256 174.04C171.919 174.714 171.445 175.239 170.835 175.614C170.225 175.989 169.511 176.176 168.693 176.176ZM168.699 174.75C169.229 174.75 169.669 174.61 170.017 174.33C170.366 174.049 170.623 173.676 170.79 173.21C170.96 172.744 171.045 172.231 171.045 171.67C171.045 171.114 170.96 170.602 170.79 170.136C170.623 169.667 170.366 169.29 170.017 169.006C169.669 168.722 169.229 168.58 168.699 168.58C168.165 168.58 167.722 168.722 167.369 169.006C167.021 169.29 166.761 169.667 166.591 170.136C166.424 170.602 166.341 171.114 166.341 171.67C166.341 172.231 166.424 172.744 166.591 173.21C166.761 173.676 167.021 174.049 167.369 174.33C167.722 174.61 168.165 174.75 168.699 174.75ZM178.334 176.176C177.489 176.176 176.762 175.985 176.152 175.602C175.546 175.216 175.08 174.684 174.754 174.006C174.429 173.328 174.266 172.551 174.266 171.676C174.266 170.79 174.432 170.008 174.766 169.33C175.099 168.648 175.569 168.116 176.175 167.733C176.781 167.35 177.495 167.159 178.317 167.159C178.98 167.159 179.571 167.282 180.089 167.528C180.608 167.771 181.027 168.112 181.345 168.551C181.667 168.991 181.858 169.504 181.919 170.091H180.266C180.175 169.682 179.966 169.33 179.641 169.034C179.319 168.739 178.887 168.591 178.345 168.591C177.872 168.591 177.457 168.716 177.101 168.966C176.749 169.212 176.474 169.564 176.277 170.023C176.08 170.477 175.982 171.015 175.982 171.636C175.982 172.273 176.078 172.822 176.271 173.284C176.464 173.746 176.737 174.104 177.089 174.358C177.446 174.612 177.864 174.739 178.345 174.739C178.667 174.739 178.959 174.68 179.22 174.562C179.485 174.441 179.707 174.269 179.885 174.045C180.067 173.822 180.194 173.553 180.266 173.239H181.919C181.858 173.803 181.675 174.307 181.368 174.75C181.061 175.193 180.65 175.542 180.135 175.795C179.624 176.049 179.023 176.176 178.334 176.176ZM189.264 172.381V167.273H190.969V176H189.298V174.489H189.207C189.007 174.955 188.685 175.343 188.241 175.653C187.802 175.96 187.255 176.114 186.599 176.114C186.039 176.114 185.543 175.991 185.111 175.744C184.683 175.494 184.346 175.125 184.099 174.636C183.857 174.148 183.736 173.544 183.736 172.824V167.273H185.435V172.619C185.435 173.214 185.599 173.687 185.929 174.04C186.259 174.392 186.687 174.568 187.213 174.568C187.531 174.568 187.848 174.489 188.162 174.33C188.48 174.17 188.743 173.93 188.952 173.608C189.164 173.286 189.268 172.877 189.264 172.381ZM199.791 169.403L198.251 169.676C198.187 169.479 198.085 169.292 197.945 169.114C197.808 168.936 197.623 168.79 197.388 168.676C197.153 168.562 196.859 168.506 196.507 168.506C196.026 168.506 195.625 168.614 195.303 168.83C194.981 169.042 194.82 169.316 194.82 169.653C194.82 169.945 194.928 170.18 195.143 170.358C195.359 170.536 195.708 170.682 196.189 170.795L197.575 171.114C198.378 171.299 198.977 171.585 199.371 171.972C199.765 172.358 199.962 172.86 199.962 173.477C199.962 174 199.81 174.466 199.507 174.875C199.208 175.28 198.789 175.598 198.251 175.83C197.717 176.061 197.098 176.176 196.393 176.176C195.416 176.176 194.619 175.968 194.001 175.551C193.384 175.131 193.005 174.534 192.865 173.761L194.507 173.511C194.609 173.939 194.82 174.263 195.138 174.483C195.456 174.699 195.871 174.807 196.382 174.807C196.939 174.807 197.384 174.691 197.717 174.46C198.051 174.225 198.217 173.939 198.217 173.602C198.217 173.33 198.115 173.1 197.911 172.915C197.71 172.729 197.401 172.589 196.984 172.494L195.507 172.17C194.693 171.985 194.09 171.689 193.7 171.284C193.314 170.879 193.121 170.366 193.121 169.744C193.121 169.229 193.265 168.778 193.553 168.392C193.84 168.006 194.238 167.705 194.746 167.489C195.253 167.269 195.835 167.159 196.49 167.159C197.433 167.159 198.176 167.364 198.717 167.773C199.259 168.178 199.617 168.722 199.791 169.403ZM205.626 165.875V164.364H214.632V165.875H211.001V176H209.251V165.875H205.626ZM216.486 176V167.273H218.185V176H216.486ZM217.344 165.926C217.048 165.926 216.795 165.828 216.582 165.631C216.374 165.43 216.27 165.191 216.27 164.915C216.27 164.634 216.374 164.396 216.582 164.199C216.795 163.998 217.048 163.898 217.344 163.898C217.639 163.898 217.891 163.998 218.099 164.199C218.312 164.396 218.418 164.634 218.418 164.915C218.418 165.191 218.312 165.43 218.099 165.631C217.891 165.828 217.639 165.926 217.344 165.926ZM220.47 176V167.273H222.101V168.693H222.209C222.391 168.212 222.688 167.837 223.101 167.568C223.514 167.295 224.008 167.159 224.584 167.159C225.167 167.159 225.656 167.295 226.05 167.568C226.447 167.841 226.741 168.216 226.93 168.693H227.021C227.23 168.227 227.561 167.856 228.016 167.58C228.47 167.299 229.012 167.159 229.641 167.159C230.432 167.159 231.078 167.407 231.578 167.903C232.082 168.4 232.334 169.148 232.334 170.148V176H230.635V170.307C230.635 169.716 230.474 169.288 230.152 169.023C229.83 168.758 229.446 168.625 228.999 168.625C228.446 168.625 228.016 168.795 227.709 169.136C227.402 169.473 227.249 169.907 227.249 170.438V176H225.555V170.199C225.555 169.725 225.408 169.345 225.112 169.057C224.817 168.769 224.432 168.625 223.959 168.625C223.637 168.625 223.339 168.71 223.067 168.881C222.798 169.047 222.58 169.28 222.413 169.58C222.25 169.879 222.169 170.225 222.169 170.619V176H220.47ZM238.372 176.176C237.512 176.176 236.772 175.992 236.151 175.625C235.533 175.254 235.056 174.733 234.719 174.062C234.385 173.388 234.219 172.598 234.219 171.693C234.219 170.799 234.385 170.011 234.719 169.33C235.056 168.648 235.526 168.116 236.128 167.733C236.734 167.35 237.442 167.159 238.253 167.159C238.745 167.159 239.223 167.241 239.685 167.403C240.147 167.566 240.562 167.822 240.929 168.17C241.296 168.519 241.586 168.972 241.798 169.528C242.01 170.081 242.116 170.754 242.116 171.545V172.148H235.179V170.875H240.452C240.452 170.428 240.361 170.032 240.179 169.688C239.997 169.339 239.741 169.064 239.412 168.864C239.086 168.663 238.704 168.562 238.264 168.562C237.787 168.562 237.37 168.68 237.014 168.915C236.662 169.146 236.389 169.449 236.196 169.824C236.007 170.195 235.912 170.598 235.912 171.034V172.028C235.912 172.612 236.014 173.108 236.219 173.517C236.427 173.926 236.717 174.239 237.088 174.455C237.459 174.667 237.893 174.773 238.389 174.773C238.711 174.773 239.005 174.727 239.27 174.636C239.535 174.542 239.764 174.402 239.957 174.216C240.151 174.03 240.298 173.801 240.401 173.528L242.009 173.818C241.88 174.292 241.649 174.706 241.315 175.062C240.986 175.415 240.571 175.689 240.071 175.886C239.575 176.08 239.009 176.176 238.372 176.176Z" fill="white"/>
<rect x="70" y="264" width="258" height="44" rx="8" fill="white"/>
<path d="M150.891 286.846C150.537 288.189 148.867 289.138 145.526 291.036C142.296 292.871 140.681 293.788 139.38 293.42C138.842 293.267 138.352 292.978 137.956 292.579C137 291.614 137 289.743 137 286C137 282.257 137 280.386 137.956 279.421C138.352 279.022 138.842 278.733 139.38 278.58C140.681 278.212 142.296 279.129 145.526 280.964C148.867 282.862 150.537 283.811 150.891 285.154C151.036 285.708 151.036 286.292 150.891 286.846Z" fill="#3399FF" stroke="#3399FF" stroke-width="1.5" stroke-linejoin="round"/>
<path d="M171.472 283.062C171.419 282.566 171.195 282.18 170.801 281.903C170.411 281.627 169.903 281.489 169.278 281.489C168.839 281.489 168.462 281.555 168.148 281.688C167.833 281.82 167.593 282 167.426 282.227C167.259 282.455 167.174 282.714 167.17 283.006C167.17 283.248 167.225 283.458 167.335 283.636C167.449 283.814 167.602 283.966 167.795 284.091C167.989 284.212 168.203 284.314 168.438 284.398C168.672 284.481 168.909 284.551 169.148 284.608L170.239 284.881C170.678 284.983 171.1 285.121 171.506 285.295C171.915 285.47 172.28 285.689 172.602 285.955C172.928 286.22 173.186 286.54 173.375 286.915C173.564 287.29 173.659 287.729 173.659 288.233C173.659 288.915 173.485 289.515 173.136 290.034C172.788 290.549 172.284 290.953 171.625 291.244C170.97 291.532 170.176 291.676 169.244 291.676C168.339 291.676 167.553 291.536 166.886 291.256C166.223 290.975 165.705 290.566 165.33 290.028C164.958 289.491 164.758 288.835 164.727 288.062H166.801C166.831 288.468 166.956 288.805 167.176 289.074C167.396 289.343 167.682 289.544 168.034 289.676C168.39 289.809 168.788 289.875 169.227 289.875C169.686 289.875 170.087 289.807 170.432 289.67C170.78 289.53 171.053 289.337 171.25 289.091C171.447 288.841 171.547 288.549 171.551 288.216C171.547 287.913 171.458 287.663 171.284 287.466C171.11 287.265 170.866 287.098 170.551 286.966C170.241 286.83 169.877 286.708 169.46 286.602L168.136 286.261C167.178 286.015 166.42 285.642 165.864 285.142C165.311 284.638 165.034 283.97 165.034 283.136C165.034 282.451 165.22 281.85 165.591 281.335C165.966 280.82 166.475 280.42 167.119 280.136C167.763 279.848 168.492 279.705 169.307 279.705C170.133 279.705 170.856 279.848 171.477 280.136C172.102 280.42 172.593 280.816 172.949 281.324C173.305 281.828 173.489 282.407 173.5 283.062H171.472ZM179.805 282.773V284.364H174.788V282.773H179.805ZM176.027 280.682H178.084V288.875C178.084 289.152 178.125 289.364 178.209 289.511C178.296 289.655 178.41 289.754 178.55 289.807C178.69 289.86 178.845 289.886 179.016 289.886C179.144 289.886 179.262 289.877 179.368 289.858C179.478 289.839 179.561 289.822 179.618 289.807L179.964 291.415C179.855 291.453 179.697 291.494 179.493 291.54C179.292 291.585 179.046 291.612 178.754 291.619C178.239 291.634 177.775 291.557 177.362 291.386C176.949 291.212 176.622 290.943 176.379 290.58C176.141 290.216 176.023 289.761 176.027 289.216V280.682ZM184.037 291.676C183.484 291.676 182.986 291.578 182.543 291.381C182.103 291.18 181.755 290.884 181.497 290.494C181.243 290.104 181.116 289.623 181.116 289.051C181.116 288.559 181.207 288.152 181.389 287.83C181.571 287.508 181.819 287.25 182.134 287.057C182.448 286.864 182.802 286.718 183.196 286.619C183.594 286.517 184.005 286.443 184.429 286.398C184.94 286.345 185.355 286.297 185.673 286.256C185.991 286.21 186.223 286.142 186.366 286.051C186.514 285.956 186.588 285.811 186.588 285.614V285.58C186.588 285.152 186.461 284.82 186.207 284.585C185.954 284.35 185.588 284.233 185.111 284.233C184.607 284.233 184.207 284.343 183.912 284.562C183.62 284.782 183.423 285.042 183.321 285.341L181.401 285.068C181.552 284.538 181.802 284.095 182.151 283.739C182.499 283.379 182.925 283.11 183.429 282.932C183.933 282.75 184.49 282.659 185.099 282.659C185.52 282.659 185.938 282.708 186.355 282.807C186.772 282.905 187.152 283.068 187.497 283.295C187.842 283.519 188.118 283.824 188.327 284.21C188.539 284.597 188.645 285.08 188.645 285.659V291.5H186.668V290.301H186.599C186.474 290.544 186.298 290.771 186.071 290.983C185.848 291.191 185.565 291.36 185.224 291.489C184.887 291.614 184.491 291.676 184.037 291.676ZM184.571 290.165C184.984 290.165 185.342 290.083 185.645 289.92C185.948 289.754 186.181 289.534 186.344 289.261C186.51 288.989 186.594 288.691 186.594 288.369V287.341C186.529 287.394 186.42 287.443 186.264 287.489C186.113 287.534 185.942 287.574 185.753 287.608C185.563 287.642 185.376 287.672 185.19 287.699C185.005 287.725 184.844 287.748 184.707 287.767C184.401 287.809 184.126 287.877 183.884 287.972C183.641 288.066 183.45 288.199 183.31 288.369C183.17 288.536 183.099 288.752 183.099 289.017C183.099 289.396 183.238 289.682 183.514 289.875C183.791 290.068 184.143 290.165 184.571 290.165ZM190.713 291.5V282.773H192.707V284.227H192.798C192.957 283.723 193.23 283.335 193.616 283.062C194.007 282.786 194.452 282.648 194.952 282.648C195.065 282.648 195.192 282.653 195.332 282.665C195.476 282.672 195.596 282.686 195.69 282.705V284.597C195.603 284.566 195.465 284.54 195.276 284.517C195.09 284.491 194.91 284.477 194.736 284.477C194.361 284.477 194.024 284.559 193.724 284.722C193.429 284.881 193.196 285.102 193.026 285.386C192.855 285.67 192.77 285.998 192.77 286.369V291.5H190.713ZM201.884 282.773V284.364H196.866V282.773H201.884ZM198.105 280.682H200.162V288.875C200.162 289.152 200.204 289.364 200.287 289.511C200.374 289.655 200.488 289.754 200.628 289.807C200.768 289.86 200.923 289.886 201.094 289.886C201.223 289.886 201.34 289.877 201.446 289.858C201.556 289.839 201.639 289.822 201.696 289.807L202.043 291.415C201.933 291.453 201.776 291.494 201.571 291.54C201.37 291.585 201.124 291.612 200.832 291.619C200.317 291.634 199.853 291.557 199.44 291.386C199.027 291.212 198.7 290.943 198.457 290.58C198.219 290.216 198.101 289.761 198.105 289.216V280.682ZM214.47 285.08L212.595 285.284C212.542 285.095 212.449 284.917 212.317 284.75C212.188 284.583 212.014 284.449 211.794 284.347C211.574 284.244 211.305 284.193 210.987 284.193C210.559 284.193 210.199 284.286 209.908 284.472C209.62 284.657 209.478 284.898 209.482 285.193C209.478 285.447 209.571 285.653 209.76 285.812C209.953 285.972 210.271 286.102 210.714 286.205L212.203 286.523C213.029 286.701 213.643 286.983 214.044 287.369C214.449 287.756 214.654 288.261 214.658 288.886C214.654 289.436 214.493 289.92 214.175 290.341C213.86 290.758 213.423 291.083 212.862 291.318C212.302 291.553 211.658 291.67 210.93 291.67C209.862 291.67 209.002 291.447 208.351 291C207.699 290.549 207.311 289.922 207.186 289.119L209.192 288.926C209.283 289.32 209.476 289.617 209.771 289.818C210.067 290.019 210.451 290.119 210.925 290.119C211.413 290.119 211.805 290.019 212.101 289.818C212.4 289.617 212.55 289.369 212.55 289.074C212.55 288.824 212.453 288.617 212.26 288.455C212.071 288.292 211.775 288.167 211.374 288.08L209.885 287.767C209.048 287.593 208.429 287.299 208.027 286.886C207.625 286.47 207.427 285.943 207.43 285.307C207.427 284.769 207.572 284.303 207.868 283.909C208.167 283.511 208.582 283.205 209.112 282.989C209.646 282.769 210.262 282.659 210.959 282.659C211.982 282.659 212.786 282.877 213.374 283.312C213.964 283.748 214.33 284.337 214.47 285.08ZM220.217 291.67C219.342 291.67 218.587 291.489 217.95 291.125C217.318 290.758 216.831 290.239 216.49 289.568C216.149 288.894 215.979 288.1 215.979 287.188C215.979 286.29 216.149 285.502 216.49 284.824C216.835 284.142 217.316 283.612 217.933 283.233C218.551 282.85 219.276 282.659 220.109 282.659C220.647 282.659 221.155 282.746 221.632 282.92C222.113 283.091 222.537 283.356 222.905 283.716C223.276 284.076 223.568 284.534 223.78 285.091C223.992 285.644 224.098 286.303 224.098 287.068V287.699H216.945V286.312H222.126C222.123 285.919 222.037 285.568 221.871 285.261C221.704 284.951 221.471 284.706 221.172 284.528C220.876 284.35 220.532 284.261 220.138 284.261C219.717 284.261 219.348 284.364 219.03 284.568C218.712 284.769 218.464 285.034 218.286 285.364C218.111 285.689 218.022 286.047 218.018 286.438V287.648C218.018 288.155 218.111 288.591 218.297 288.955C218.482 289.314 218.742 289.591 219.075 289.784C219.409 289.973 219.799 290.068 220.246 290.068C220.545 290.068 220.816 290.027 221.058 289.943C221.301 289.856 221.511 289.729 221.689 289.562C221.867 289.396 222.001 289.189 222.092 288.943L224.013 289.159C223.892 289.667 223.661 290.11 223.32 290.489C222.982 290.864 222.551 291.155 222.024 291.364C221.498 291.568 220.895 291.67 220.217 291.67ZM232.736 285.08L230.861 285.284C230.808 285.095 230.715 284.917 230.582 284.75C230.454 284.583 230.279 284.449 230.06 284.347C229.84 284.244 229.571 284.193 229.253 284.193C228.825 284.193 228.465 284.286 228.173 284.472C227.885 284.657 227.743 284.898 227.747 285.193C227.743 285.447 227.836 285.653 228.026 285.812C228.219 285.972 228.537 286.102 228.98 286.205L230.469 286.523C231.295 286.701 231.908 286.983 232.31 287.369C232.715 287.756 232.92 288.261 232.923 288.886C232.92 289.436 232.759 289.92 232.44 290.341C232.126 290.758 231.688 291.083 231.128 291.318C230.567 291.553 229.923 291.67 229.196 291.67C228.128 291.67 227.268 291.447 226.616 291C225.965 290.549 225.577 289.922 225.452 289.119L227.457 288.926C227.548 289.32 227.741 289.617 228.037 289.818C228.332 290.019 228.717 290.119 229.19 290.119C229.679 290.119 230.071 290.019 230.366 289.818C230.666 289.617 230.815 289.369 230.815 289.074C230.815 288.824 230.719 288.617 230.526 288.455C230.336 288.292 230.041 288.167 229.639 288.08L228.151 287.767C227.313 287.593 226.694 287.299 226.293 286.886C225.891 286.47 225.692 285.943 225.696 285.307C225.692 284.769 225.838 284.303 226.134 283.909C226.433 283.511 226.848 283.205 227.378 282.989C227.912 282.769 228.527 282.659 229.224 282.659C230.247 282.659 231.052 282.877 231.639 283.312C232.23 283.748 232.596 284.337 232.736 285.08ZM241.517 285.08L239.642 285.284C239.589 285.095 239.496 284.917 239.364 284.75C239.235 284.583 239.061 284.449 238.841 284.347C238.621 284.244 238.352 284.193 238.034 284.193C237.606 284.193 237.246 284.286 236.955 284.472C236.667 284.657 236.525 284.898 236.528 285.193C236.525 285.447 236.617 285.653 236.807 285.812C237 285.972 237.318 286.102 237.761 286.205L239.25 286.523C240.076 286.701 240.689 286.983 241.091 287.369C241.496 287.756 241.701 288.261 241.705 288.886C241.701 289.436 241.54 289.92 241.222 290.341C240.907 290.758 240.47 291.083 239.909 291.318C239.348 291.553 238.705 291.67 237.977 291.67C236.909 291.67 236.049 291.447 235.398 291C234.746 290.549 234.358 289.922 234.233 289.119L236.239 288.926C236.33 289.32 236.523 289.617 236.818 289.818C237.114 290.019 237.498 290.119 237.972 290.119C238.46 290.119 238.852 290.019 239.148 289.818C239.447 289.617 239.597 289.369 239.597 289.074C239.597 288.824 239.5 288.617 239.307 288.455C239.117 288.292 238.822 288.167 238.42 288.08L236.932 287.767C236.095 287.593 235.475 287.299 235.074 286.886C234.672 286.47 234.473 285.943 234.477 285.307C234.473 284.769 234.619 284.303 234.915 283.909C235.214 283.511 235.629 283.205 236.159 282.989C236.693 282.769 237.309 282.659 238.006 282.659C239.028 282.659 239.833 282.877 240.42 283.312C241.011 283.748 241.377 284.337 241.517 285.08ZM243.401 291.5V282.773H245.457V291.5H243.401ZM244.435 281.534C244.109 281.534 243.829 281.426 243.594 281.21C243.359 280.991 243.241 280.727 243.241 280.42C243.241 280.11 243.359 279.847 243.594 279.631C243.829 279.411 244.109 279.301 244.435 279.301C244.764 279.301 245.045 279.411 245.276 279.631C245.51 279.847 245.628 280.11 245.628 280.42C245.628 280.727 245.51 280.991 245.276 281.21C245.045 281.426 244.764 281.534 244.435 281.534ZM251.379 291.67C250.527 291.67 249.788 291.483 249.163 291.108C248.538 290.733 248.054 290.208 247.709 289.534C247.368 288.86 247.197 288.072 247.197 287.17C247.197 286.269 247.368 285.479 247.709 284.801C248.054 284.123 248.538 283.597 249.163 283.222C249.788 282.847 250.527 282.659 251.379 282.659C252.232 282.659 252.97 282.847 253.595 283.222C254.22 283.597 254.703 284.123 255.044 284.801C255.389 285.479 255.561 286.269 255.561 287.17C255.561 288.072 255.389 288.86 255.044 289.534C254.703 290.208 254.22 290.733 253.595 291.108C252.97 291.483 252.232 291.67 251.379 291.67ZM251.391 290.023C251.853 290.023 252.239 289.896 252.55 289.642C252.86 289.384 253.091 289.04 253.243 288.608C253.398 288.176 253.476 287.695 253.476 287.165C253.476 286.631 253.398 286.148 253.243 285.716C253.091 285.28 252.86 284.934 252.55 284.676C252.239 284.419 251.853 284.29 251.391 284.29C250.917 284.29 250.523 284.419 250.209 284.676C249.898 284.934 249.665 285.28 249.51 285.716C249.358 286.148 249.283 286.631 249.283 287.165C249.283 287.695 249.358 288.176 249.51 288.608C249.665 289.04 249.898 289.384 250.209 289.642C250.523 289.896 250.917 290.023 251.391 290.023ZM259.364 286.386V291.5H257.307V282.773H259.273V284.256H259.375C259.576 283.767 259.896 283.379 260.335 283.091C260.778 282.803 261.326 282.659 261.977 282.659C262.58 282.659 263.104 282.788 263.551 283.045C264.002 283.303 264.35 283.676 264.597 284.165C264.847 284.653 264.97 285.246 264.966 285.943V291.5H262.909V286.261C262.909 285.678 262.758 285.222 262.455 284.892C262.155 284.562 261.741 284.398 261.21 284.398C260.85 284.398 260.53 284.477 260.25 284.636C259.973 284.792 259.756 285.017 259.597 285.312C259.441 285.608 259.364 285.966 259.364 286.386Z" fill="#3399FF"/>
<rect x="70" y="324" width="80.6667" height="27" rx="5" fill="white" fill-opacity="0.18"/>
<path d="M85.4526 343V341.727L89.3901 337.648C89.8106 337.205 90.1572 336.816 90.4299 336.483C90.7064 336.146 90.9129 335.826 91.0492 335.523C91.1856 335.22 91.2538 334.898 91.2538 334.557C91.2538 334.17 91.1629 333.837 90.981 333.557C90.7992 333.273 90.5511 333.055 90.2367 332.903C89.9223 332.748 89.5682 332.67 89.1742 332.67C88.7576 332.67 88.3939 332.756 88.0833 332.926C87.7727 333.097 87.5341 333.337 87.3674 333.648C87.2007 333.958 87.1174 334.322 87.1174 334.739H85.4413C85.4413 334.03 85.6041 333.411 85.9299 332.881C86.2557 332.35 86.7026 331.939 87.2708 331.648C87.839 331.352 88.4848 331.205 89.2083 331.205C89.9394 331.205 90.5833 331.35 91.1401 331.642C91.7007 331.93 92.1382 332.324 92.4526 332.824C92.767 333.32 92.9242 333.881 92.9242 334.506C92.9242 334.938 92.8428 335.36 92.6799 335.773C92.5208 336.186 92.2424 336.646 91.8447 337.153C91.4469 337.657 90.8939 338.269 90.1856 338.989L87.8731 341.409V341.494H93.1117V343H85.4526ZM99.106 343.159C98.3939 343.159 97.7538 343.023 97.1856 342.75C96.6212 342.473 96.1704 342.095 95.8333 341.614C95.4962 341.133 95.3163 340.583 95.2935 339.966H96.9981C97.0398 340.466 97.2613 340.877 97.6629 341.199C98.0644 341.521 98.5454 341.682 99.106 341.682C99.553 341.682 99.9488 341.58 100.294 341.375C100.642 341.167 100.915 340.881 101.112 340.517C101.312 340.153 101.413 339.739 101.413 339.273C101.413 338.799 101.311 338.377 101.106 338.006C100.901 337.634 100.619 337.343 100.259 337.131C99.9034 336.919 99.4943 336.811 99.0322 336.807C98.6799 336.807 98.3257 336.867 97.9697 336.989C97.6136 337.11 97.3257 337.269 97.106 337.466L95.4981 337.227L96.1515 331.364H102.549V332.869H97.6117L97.2424 336.125H97.3106C97.5379 335.905 97.839 335.722 98.214 335.574C98.5928 335.426 98.9981 335.352 99.4299 335.352C100.138 335.352 100.769 335.521 101.322 335.858C101.879 336.195 102.316 336.655 102.634 337.239C102.956 337.818 103.116 338.485 103.112 339.239C103.116 339.992 102.945 340.665 102.6 341.256C102.259 341.847 101.786 342.312 101.18 342.653C100.578 342.991 99.8863 343.159 99.106 343.159ZM109.444 343V334.273H111.075V335.693H111.183C111.365 335.212 111.662 334.837 112.075 334.568C112.488 334.295 112.982 334.159 113.558 334.159C114.141 334.159 114.63 334.295 115.024 334.568C115.421 334.841 115.715 335.216 115.904 335.693H115.995C116.204 335.227 116.535 334.856 116.99 334.58C117.444 334.299 117.986 334.159 118.615 334.159C119.406 334.159 120.052 334.407 120.552 334.903C121.056 335.4 121.308 336.148 121.308 337.148V343H119.609V337.307C119.609 336.716 119.448 336.288 119.126 336.023C118.804 335.758 118.419 335.625 117.973 335.625C117.419 335.625 116.99 335.795 116.683 336.136C116.376 336.473 116.223 336.907 116.223 337.438V343H114.529V337.199C114.529 336.725 114.382 336.345 114.086 336.057C113.791 335.769 113.406 335.625 112.933 335.625C112.611 335.625 112.313 335.71 112.041 335.881C111.772 336.047 111.554 336.28 111.387 336.58C111.224 336.879 111.143 337.225 111.143 337.619V343H109.444ZM123.585 343V334.273H125.284V343H123.585ZM124.443 332.926C124.147 332.926 123.893 332.828 123.681 332.631C123.473 332.43 123.369 332.191 123.369 331.915C123.369 331.634 123.473 331.396 123.681 331.199C123.893 330.998 124.147 330.898 124.443 330.898C124.738 330.898 124.99 330.998 125.198 331.199C125.41 331.396 125.517 331.634 125.517 331.915C125.517 332.191 125.41 332.43 125.198 332.631C124.99 332.828 124.738 332.926 124.443 332.926ZM129.268 337.818V343H127.569V334.273H129.2V335.693H129.308C129.509 335.231 129.823 334.86 130.251 334.58C130.683 334.299 131.226 334.159 131.882 334.159C132.476 334.159 132.997 334.284 133.444 334.534C133.891 334.78 134.238 335.148 134.484 335.636C134.73 336.125 134.853 336.729 134.853 337.449V343H133.154V337.653C133.154 337.021 132.99 336.527 132.66 336.17C132.33 335.811 131.878 335.631 131.302 335.631C130.908 335.631 130.558 335.716 130.251 335.886C129.948 336.057 129.707 336.307 129.529 336.636C129.355 336.962 129.268 337.356 129.268 337.818Z" fill="white"/>
<rect x="158.667" y="324" width="80.6667" height="27" rx="5" fill="white" fill-opacity="0.18"/>
<path d="M177.682 343.159C177.163 343.152 176.652 343.057 176.148 342.875C175.648 342.693 175.193 342.39 174.784 341.966C174.375 341.542 174.047 340.972 173.801 340.256C173.559 339.54 173.438 338.646 173.438 337.574C173.438 336.559 173.538 335.657 173.739 334.869C173.943 334.081 174.237 333.417 174.619 332.875C175.002 332.33 175.464 331.915 176.006 331.631C176.547 331.347 177.155 331.205 177.83 331.205C178.523 331.205 179.138 331.341 179.676 331.614C180.214 331.886 180.65 332.263 180.983 332.744C181.32 333.225 181.534 333.773 181.625 334.386H179.892C179.775 333.902 179.542 333.506 179.193 333.199C178.845 332.892 178.39 332.739 177.83 332.739C176.977 332.739 176.313 333.11 175.835 333.852C175.362 334.595 175.123 335.627 175.119 336.949H175.205C175.405 336.619 175.652 336.339 175.943 336.108C176.239 335.873 176.568 335.693 176.932 335.568C177.299 335.439 177.686 335.375 178.091 335.375C178.765 335.375 179.375 335.54 179.92 335.869C180.47 336.195 180.907 336.646 181.233 337.222C181.559 337.797 181.722 338.456 181.722 339.199C181.722 339.941 181.553 340.614 181.216 341.216C180.883 341.818 180.413 342.295 179.807 342.648C179.201 342.996 178.492 343.167 177.682 343.159ZM177.676 341.682C178.123 341.682 178.523 341.572 178.875 341.352C179.227 341.133 179.506 340.837 179.71 340.466C179.915 340.095 180.017 339.68 180.017 339.222C180.017 338.775 179.917 338.367 179.716 338C179.519 337.633 179.246 337.341 178.898 337.125C178.553 336.909 178.159 336.801 177.716 336.801C177.379 336.801 177.066 336.866 176.778 336.994C176.494 337.123 176.244 337.301 176.028 337.528C175.813 337.756 175.642 338.017 175.517 338.312C175.396 338.604 175.335 338.913 175.335 339.239C175.335 339.674 175.436 340.078 175.636 340.449C175.841 340.82 176.119 341.119 176.472 341.347C176.828 341.57 177.229 341.682 177.676 341.682ZM187.842 343.193C186.945 343.189 186.178 342.953 185.541 342.483C184.905 342.013 184.418 341.33 184.081 340.432C183.744 339.534 183.575 338.453 183.575 337.188C183.575 335.926 183.744 334.848 184.081 333.955C184.422 333.061 184.911 332.379 185.547 331.909C186.187 331.439 186.952 331.205 187.842 331.205C188.732 331.205 189.496 331.441 190.132 331.915C190.768 332.384 191.255 333.066 191.592 333.96C191.933 334.85 192.104 335.926 192.104 337.188C192.104 338.456 191.935 339.54 191.598 340.438C191.261 341.331 190.774 342.015 190.138 342.489C189.501 342.958 188.736 343.193 187.842 343.193ZM187.842 341.676C188.63 341.676 189.246 341.292 189.689 340.523C190.136 339.754 190.359 338.642 190.359 337.188C190.359 336.222 190.257 335.405 190.053 334.739C189.852 334.068 189.562 333.561 189.183 333.216C188.808 332.867 188.361 332.693 187.842 332.693C187.058 332.693 186.443 333.08 185.996 333.852C185.549 334.625 185.323 335.737 185.32 337.188C185.32 338.157 185.42 338.977 185.621 339.648C185.825 340.314 186.115 340.82 186.49 341.165C186.865 341.506 187.316 341.676 187.842 341.676ZM198.376 343V334.273H200.007V335.693H200.115C200.297 335.212 200.594 334.837 201.007 334.568C201.42 334.295 201.914 334.159 202.49 334.159C203.073 334.159 203.562 334.295 203.956 334.568C204.354 334.841 204.647 335.216 204.837 335.693H204.928C205.136 335.227 205.467 334.856 205.922 334.58C206.376 334.299 206.918 334.159 207.547 334.159C208.339 334.159 208.984 334.407 209.484 334.903C209.988 335.4 210.24 336.148 210.24 337.148V343H208.541V337.307C208.541 336.716 208.38 336.288 208.058 336.023C207.736 335.758 207.352 335.625 206.905 335.625C206.352 335.625 205.922 335.795 205.615 336.136C205.308 336.473 205.155 336.907 205.155 337.438V343H203.462V337.199C203.462 336.725 203.314 336.345 203.018 336.057C202.723 335.769 202.339 335.625 201.865 335.625C201.543 335.625 201.246 335.71 200.973 335.881C200.704 336.047 200.486 336.28 200.32 336.58C200.157 336.879 200.075 337.225 200.075 337.619V343H198.376ZM212.517 343V334.273H214.216V343H212.517ZM213.375 332.926C213.08 332.926 212.826 332.828 212.614 332.631C212.405 332.43 212.301 332.191 212.301 331.915C212.301 331.634 212.405 331.396 212.614 331.199C212.826 330.998 213.08 330.898 213.375 330.898C213.67 330.898 213.922 330.998 214.131 331.199C214.343 331.396 214.449 331.634 214.449 331.915C214.449 332.191 214.343 332.43 214.131 332.631C213.922 332.828 213.67 332.926 213.375 332.926ZM218.2 337.818V343H216.501V334.273H218.132V335.693H218.24C218.441 335.231 218.755 334.86 219.183 334.58C219.615 334.299 220.159 334.159 220.814 334.159C221.409 334.159 221.929 334.284 222.376 334.534C222.823 334.78 223.17 335.148 223.416 335.636C223.662 336.125 223.786 336.729 223.786 337.449V343H222.087V337.653C222.087 337.021 221.922 336.527 221.592 336.17C221.263 335.811 220.81 335.631 220.234 335.631C219.84 335.631 219.49 335.716 219.183 335.886C218.88 336.057 218.64 336.307 218.462 336.636C218.287 336.962 218.2 337.356 218.2 337.818Z" fill="white"/>
<rect x="247.333" y="324" width="80.6667" height="27" rx="5" fill="white" fill-opacity="0.18"/>
<path d="M262.042 340.727V339.307L267.07 331.364H268.189V333.455H267.479L263.883 339.148V339.239H270.775V340.727H262.042ZM267.559 343V340.295L267.57 339.648V331.364H269.235V343H267.559ZM276.596 343.159C275.884 343.159 275.243 343.023 274.675 342.75C274.111 342.473 273.66 342.095 273.323 341.614C272.986 341.133 272.806 340.583 272.783 339.966H274.488C274.529 340.466 274.751 340.877 275.153 341.199C275.554 341.521 276.035 341.682 276.596 341.682C277.043 341.682 277.439 341.58 277.783 341.375C278.132 341.167 278.404 340.881 278.601 340.517C278.802 340.153 278.903 339.739 278.903 339.273C278.903 338.799 278.8 338.377 278.596 338.006C278.391 337.634 278.109 337.343 277.749 337.131C277.393 336.919 276.984 336.811 276.522 336.807C276.17 336.807 275.815 336.867 275.459 336.989C275.103 337.11 274.815 337.269 274.596 337.466L272.988 337.227L273.641 331.364H280.039V332.869H275.101L274.732 336.125H274.8C275.028 335.905 275.329 335.722 275.704 335.574C276.082 335.426 276.488 335.352 276.92 335.352C277.628 335.352 278.259 335.521 278.812 335.858C279.368 336.195 279.806 336.655 280.124 337.239C280.446 337.818 280.605 338.485 280.601 339.239C280.605 339.992 280.435 340.665 280.09 341.256C279.749 341.847 279.276 342.312 278.67 342.653C278.067 342.991 277.376 343.159 276.596 343.159ZM286.934 343V334.273H288.564V335.693H288.672C288.854 335.212 289.152 334.837 289.564 334.568C289.977 334.295 290.472 334.159 291.047 334.159C291.631 334.159 292.119 334.295 292.513 334.568C292.911 334.841 293.205 335.216 293.394 335.693H293.485C293.693 335.227 294.025 334.856 294.479 334.58C294.934 334.299 295.475 334.159 296.104 334.159C296.896 334.159 297.542 334.407 298.042 334.903C298.546 335.4 298.797 336.148 298.797 337.148V343H297.099V337.307C297.099 336.716 296.938 336.288 296.616 336.023C296.294 335.758 295.909 335.625 295.462 335.625C294.909 335.625 294.479 335.795 294.172 336.136C293.866 336.473 293.712 336.907 293.712 337.438V343H292.019V337.199C292.019 336.725 291.871 336.345 291.576 336.057C291.28 335.769 290.896 335.625 290.422 335.625C290.1 335.625 289.803 335.71 289.53 335.881C289.261 336.047 289.044 336.28 288.877 336.58C288.714 336.879 288.633 337.225 288.633 337.619V343H286.934ZM301.074 343V334.273H302.773V343H301.074ZM301.932 332.926C301.637 332.926 301.383 332.828 301.171 332.631C300.963 332.43 300.859 332.191 300.859 331.915C300.859 331.634 300.963 331.396 301.171 331.199C301.383 330.998 301.637 330.898 301.932 330.898C302.228 330.898 302.48 330.998 302.688 331.199C302.9 331.396 303.006 331.634 303.006 331.915C303.006 332.191 302.9 332.43 302.688 332.631C302.48 332.828 302.228 332.926 301.932 332.926ZM306.758 337.818V343H305.059V334.273H306.689V335.693H306.797C306.998 335.231 307.313 334.86 307.741 334.58C308.172 334.299 308.716 334.159 309.371 334.159C309.966 334.159 310.487 334.284 310.934 334.534C311.381 334.78 311.727 335.148 311.974 335.636C312.22 336.125 312.343 336.729 312.343 337.449V343H310.644V337.653C310.644 337.021 310.479 336.527 310.15 336.17C309.82 335.811 309.368 335.631 308.792 335.631C308.398 335.631 308.047 335.716 307.741 335.886C307.438 336.057 307.197 336.307 307.019 336.636C306.845 336.962 306.758 337.356 306.758 337.818Z" fill="white"/>
<defs>
<linearGradient id="paint0_linear_104_9127" x1="12.2336" y1="-8.54478e-06" x2="471.248" y2="176.398" gradientUnits="userSpaceOnUse">
<stop stop-color="#3399FF"/>
<stop offset="1" stop-color="#3864F5"/>
</linearGradient>
</defs>
</svg>
