<svg width="32" height="32" viewBox="0 0 32 32" fill="none" xmlns="http://www.w3.org/2000/svg">
<path d="M2.66797 25.3333V10.0654C2.66797 8.14021 2.66797 7.17763 2.9924 6.42196C3.3969 5.4798 4.14777 4.72893 5.08993 4.32443C5.8456 4 6.7987 4 8.73333 4H9.39212C10.1989 4 10.9623 4.36525 11.4685 4.99345L13.8913 8M13.8913 8H21.3346C23.2014 8 24.1349 8 24.848 8.36331C25.4752 8.68289 25.985 9.19283 26.3046 9.82003C26.668 10.5331 26.668 11.4665 26.668 13.3333V14.6667M13.8913 8H9.33464" stroke="#FFCD0F" stroke-width="2" stroke-linecap="round" stroke-linejoin="round"/>
<path d="M4.21199 20.6858L4.60987 19.6956C5.58835 17.2598 6.07761 16.0421 7.09784 15.3544C8.11806 14.6666 9.43539 14.6666 12.0701 14.6666H22.8172C26.4018 14.6666 28.1941 14.6666 28.9909 15.8382C29.7876 17.01 29.122 18.6669 27.7906 21.9808L27.3928 22.971C26.4142 25.4068 25.925 26.6245 24.9048 27.3122C23.8845 28 22.5672 28 19.9325 28H9.18546C5.60078 28 3.80843 28 3.01173 26.8284C2.21502 25.6566 2.88067 23.9997 4.21199 20.6858Z" stroke="#FFCD0F" stroke-width="2" stroke-linejoin="round"/>
</svg>
