<svg width="40" height="40" viewBox="0 0 40 40" fill="none" xmlns="http://www.w3.org/2000/svg">
<path d="M0 12C0 5.37258 5.37258 0 12 0H28C34.6274 0 40 5.37258 40 12V28C40 34.6274 34.6274 40 28 40H12C5.37258 40 0 34.6274 0 28V12Z" fill="white" fill-opacity="0.1"/>
<path d="M8 9.719C8 8.7695 8.789 8 9.7625 8H30.2375C31.211 8 32 8.7695 32 9.719V30.281C32 31.2305 31.211 32 30.2375 32H9.7625C8.789 32 8 31.2305 8 30.281V9.719ZM15.4145 28.091V17.2535H11.813V28.091H15.4145ZM13.6145 15.773C14.87 15.773 15.6515 14.942 15.6515 13.901C15.629 12.8375 14.8715 12.029 13.6385 12.029C12.4055 12.029 11.6 12.839 11.6 13.901C11.6 14.942 12.3815 15.773 13.5905 15.773H13.6145ZM20.9765 28.091V22.0385C20.9765 21.7145 21.0005 21.3905 21.0965 21.1595C21.356 20.513 21.9485 19.8425 22.9445 19.8425C24.248 19.8425 24.7685 20.8355 24.7685 22.2935V28.091H28.37V21.875C28.37 18.545 26.594 16.997 24.224 16.997C22.313 16.997 21.4565 18.047 20.9765 18.7865V18.824H20.9525L20.9765 18.7865V17.2535H17.3765C17.4215 18.2705 17.3765 28.091 17.3765 28.091H20.9765Z" fill="white"/>
</svg>
