<svg width="56" height="56" viewBox="0 0 56 56" fill="none" xmlns="http://www.w3.org/2000/svg">
<rect width="56" height="56" rx="28" fill="url(#paint0_linear_104_8827)"/>
<path d="M27.5682 39.8182C25.7955 39.8182 24.2235 39.5152 22.8523 38.9091C21.4886 38.2955 20.4129 37.4508 19.625 36.375C18.8371 35.2992 18.4356 34.0606 18.4205 32.6591H24.0795C24.1023 33.1667 24.2652 33.6174 24.5682 34.0114C24.8712 34.3977 25.2841 34.7008 25.8068 34.9205C26.3295 35.1402 26.9242 35.25 27.5909 35.25C28.2576 35.25 28.8447 35.1326 29.3523 34.8977C29.8674 34.6553 30.2689 34.3258 30.5568 33.9091C30.8447 33.4848 30.9848 33 30.9773 32.4545C30.9848 31.9091 30.8295 31.4242 30.5114 31C30.1932 30.5758 29.7424 30.2462 29.1591 30.0114C28.5833 29.7765 27.9015 29.6591 27.1136 29.6591H24.8523V25.6591H27.1136C27.803 25.6591 28.4091 25.5455 28.9318 25.3182C29.4621 25.0909 29.875 24.7727 30.1705 24.3636C30.4659 23.947 30.6098 23.4697 30.6023 22.9318C30.6098 22.4091 30.4848 21.9508 30.2273 21.5568C29.9773 21.1553 29.625 20.8447 29.1705 20.625C28.7235 20.4053 28.2045 20.2955 27.6136 20.2955C26.9924 20.2955 26.428 20.4053 25.9205 20.625C25.4205 20.8447 25.0227 21.1553 24.7273 21.5568C24.4318 21.9583 24.2765 22.4242 24.2614 22.9545H18.8864C18.9015 21.5682 19.2879 20.3485 20.0455 19.2955C20.803 18.2348 21.8333 17.4053 23.1364 16.8068C24.447 16.2083 25.9394 15.9091 27.6136 15.9091C29.2803 15.9091 30.7462 16.2008 32.0114 16.7841C33.2765 17.3674 34.2614 18.1629 34.9659 19.1705C35.6705 20.1705 36.0227 21.303 36.0227 22.5682C36.0303 23.8788 35.6023 24.9583 34.7386 25.8068C33.8826 26.6553 32.7803 27.178 31.4318 27.375V27.5568C33.2348 27.7689 34.5947 28.3523 35.5114 29.3068C36.4356 30.2614 36.8939 31.4545 36.8864 32.8864C36.8864 34.2348 36.4886 35.4318 35.6932 36.4773C34.9053 37.5152 33.8068 38.3333 32.3977 38.9318C30.9962 39.5227 29.3864 39.8182 27.5682 39.8182Z" fill="white"/>
<defs>
<linearGradient id="paint0_linear_104_8827" x1="1.72131" y1="-1.30384e-06" x2="67.5749" y2="23.3362" gradientUnits="userSpaceOnUse">
<stop stop-color="#3399FF"/>
<stop offset="1" stop-color="#3864F5"/>
</linearGradient>
</defs>
</svg>
