<svg width="56" height="56" viewBox="0 0 56 56" fill="none" xmlns="http://www.w3.org/2000/svg">
<rect width="56" height="56" rx="28" fill="url(#paint0_linear_104_8817)"/>
<path d="M19.2159 39.5V35.4545L27.7045 28.0227C28.3409 27.447 28.8826 26.9205 29.3295 26.4432C29.7765 25.9583 30.1174 25.4735 30.3523 24.9886C30.5871 24.4962 30.7045 23.9621 30.7045 23.3864C30.7045 22.7424 30.5644 22.1932 30.2841 21.7386C30.0038 21.2765 29.6174 20.9205 29.125 20.6705C28.6326 20.4205 28.0682 20.2955 27.4318 20.2955C26.7879 20.2955 26.2235 20.428 25.7386 20.6932C25.2538 20.9508 24.875 21.3258 24.6023 21.8182C24.3371 22.3106 24.2045 22.9091 24.2045 23.6136H18.875C18.875 22.0303 19.2311 20.6629 19.9432 19.5114C20.6553 18.3598 21.6553 17.4735 22.9432 16.8523C24.2386 16.2235 25.7424 15.9091 27.4545 15.9091C29.2197 15.9091 30.7538 16.2045 32.0568 16.7955C33.3598 17.3864 34.3674 18.2121 35.0795 19.2727C35.7992 20.3258 36.1591 21.5492 36.1591 22.9432C36.1591 23.8295 35.9811 24.7083 35.625 25.5795C35.2689 26.4508 34.6288 27.4129 33.7045 28.4659C32.7879 29.5189 31.4848 30.7803 29.7955 32.25L27.0114 34.8182V34.9659H36.4432V39.5H19.2159Z" fill="white"/>
<defs>
<linearGradient id="paint0_linear_104_8817" x1="1.72131" y1="-1.30384e-06" x2="67.5749" y2="23.3362" gradientUnits="userSpaceOnUse">
<stop stop-color="#3399FF"/>
<stop offset="1" stop-color="#3864F5"/>
</linearGradient>
</defs>
</svg>
