<svg width="98" height="18" viewBox="0 0 98 18" fill="none" xmlns="http://www.w3.org/2000/svg">
<path d="M8.19359 2.60911C8.26786 2.45839 8.38284 2.33147 8.52552 2.24272C8.66819 2.15397 8.83286 2.10693 9.00089 2.10693C9.16892 2.10693 9.33359 2.15397 9.47626 2.24272C9.61894 2.33147 9.73392 2.45839 9.80819 2.60911L11.5452 6.12901L15.4305 6.69331C15.5967 6.71745 15.7529 6.78762 15.8813 6.8959C16.0097 7.00418 16.1053 7.14623 16.1571 7.30599C16.209 7.46575 16.2152 7.63684 16.1749 7.79991C16.1346 7.96298 16.0494 8.11151 15.9291 8.22871L13.1175 10.9692L13.7817 14.8383C13.81 15.0038 13.7915 15.174 13.7282 15.3295C13.665 15.485 13.5594 15.6198 13.4236 15.7185C13.2877 15.8172 13.1269 15.8759 12.9594 15.888C12.792 15.9001 12.6244 15.8651 12.4758 15.7869L9.00179 13.9599L5.52599 15.7869C5.37738 15.8648 5.20996 15.8996 5.04262 15.8874C4.87529 15.8752 4.71469 15.8164 4.57898 15.7178C4.44326 15.6191 4.33782 15.4845 4.27456 15.3291C4.21131 15.1737 4.19275 15.0037 4.22099 14.8383L4.88429 10.9683L2.07269 8.22871C1.95236 8.11151 1.86722 7.96298 1.82692 7.79991C1.78662 7.63684 1.79275 7.46575 1.84463 7.30599C1.89651 7.14623 1.99207 7.00418 2.12048 6.8959C2.2489 6.78762 2.40506 6.71745 2.57129 6.69331L6.45659 6.12901L8.19359 2.60911Z" fill="url(#paint0_linear_104_8874)"/>
<path d="M28.1936 2.60911C28.2679 2.45839 28.3828 2.33147 28.5255 2.24272C28.6682 2.15397 28.8329 2.10693 29.0009 2.10693C29.1689 2.10693 29.3336 2.15397 29.4763 2.24272C29.6189 2.33147 29.7339 2.45839 29.8082 2.60911L31.5452 6.12901L35.4305 6.69331C35.5967 6.71745 35.7529 6.78762 35.8813 6.8959C36.0097 7.00418 36.1053 7.14623 36.1571 7.30599C36.209 7.46575 36.2152 7.63684 36.1749 7.79991C36.1346 7.96298 36.0494 8.11151 35.9291 8.22871L33.1175 10.9692L33.7817 14.8383C33.81 15.0038 33.7915 15.174 33.7282 15.3295C33.665 15.485 33.5594 15.6198 33.4236 15.7185C33.2877 15.8172 33.1269 15.8759 32.9594 15.888C32.792 15.9001 32.6244 15.8651 32.4758 15.7869L29.0018 13.9599L25.526 15.7869C25.3774 15.8648 25.21 15.8996 25.0426 15.8874C24.8753 15.8752 24.7147 15.8164 24.579 15.7178C24.4433 15.6191 24.3378 15.4845 24.2746 15.3291C24.2113 15.1737 24.1928 15.0037 24.221 14.8383L24.8843 10.9683L22.0727 8.22871C21.9524 8.11151 21.8672 7.96298 21.8269 7.79991C21.7866 7.63684 21.7928 7.46575 21.8446 7.30599C21.8965 7.14623 21.9921 7.00418 22.1205 6.8959C22.2489 6.78762 22.4051 6.71745 22.5713 6.69331L26.4566 6.12901L28.1936 2.60911Z" fill="url(#paint1_linear_104_8874)"/>
<path d="M48.1936 2.60911C48.2679 2.45839 48.3828 2.33147 48.5255 2.24272C48.6682 2.15397 48.8329 2.10693 49.0009 2.10693C49.1689 2.10693 49.3336 2.15397 49.4763 2.24272C49.6189 2.33147 49.7339 2.45839 49.8082 2.60911L51.5452 6.12901L55.4305 6.69331C55.5967 6.71745 55.7529 6.78762 55.8813 6.8959C56.0097 7.00418 56.1053 7.14623 56.1571 7.30599C56.209 7.46575 56.2152 7.63684 56.1749 7.79991C56.1346 7.96298 56.0494 8.11151 55.9291 8.22871L53.1175 10.9692L53.7817 14.8383C53.81 15.0038 53.7915 15.174 53.7282 15.3295C53.665 15.485 53.5594 15.6198 53.4236 15.7185C53.2877 15.8172 53.1269 15.8759 52.9594 15.888C52.792 15.9001 52.6244 15.8651 52.4758 15.7869L49.0018 13.9599L45.526 15.7869C45.3774 15.8648 45.21 15.8996 45.0426 15.8874C44.8753 15.8752 44.7147 15.8164 44.579 15.7178C44.4433 15.6191 44.3378 15.4845 44.2746 15.3291C44.2113 15.1737 44.1928 15.0037 44.221 14.8383L44.8843 10.9683L42.0727 8.22871C41.9524 8.11151 41.8672 7.96298 41.8269 7.79991C41.7866 7.63684 41.7928 7.46575 41.8446 7.30599C41.8965 7.14623 41.9921 7.00418 42.1205 6.8959C42.2489 6.78762 42.4051 6.71745 42.5713 6.69331L46.4566 6.12901L48.1936 2.60911Z" fill="url(#paint2_linear_104_8874)"/>
<path d="M68.1936 2.60911C68.2679 2.45839 68.3828 2.33147 68.5255 2.24272C68.6682 2.15397 68.8329 2.10693 69.0009 2.10693C69.1689 2.10693 69.3336 2.15397 69.4763 2.24272C69.6189 2.33147 69.7339 2.45839 69.8082 2.60911L71.5452 6.12901L75.4305 6.69331C75.5967 6.71745 75.7529 6.78762 75.8813 6.8959C76.0097 7.00418 76.1053 7.14623 76.1571 7.30599C76.209 7.46575 76.2152 7.63684 76.1749 7.79991C76.1346 7.96298 76.0494 8.11151 75.9291 8.22871L73.1175 10.9692L73.7817 14.8383C73.81 15.0038 73.7915 15.174 73.7282 15.3295C73.665 15.485 73.5594 15.6198 73.4236 15.7185C73.2877 15.8172 73.1269 15.8759 72.9594 15.888C72.792 15.9001 72.6244 15.8651 72.4758 15.7869L69.0018 13.9599L65.526 15.7869C65.3774 15.8648 65.21 15.8996 65.0426 15.8874C64.8753 15.8752 64.7147 15.8164 64.579 15.7178C64.4433 15.6191 64.3378 15.4845 64.2746 15.3291C64.2113 15.1737 64.1928 15.0037 64.221 14.8383L64.8843 10.9683L62.0727 8.22871C61.9524 8.11151 61.8672 7.96298 61.8269 7.79991C61.7866 7.63684 61.7928 7.46575 61.8446 7.30599C61.8965 7.14623 61.9921 7.00418 62.1205 6.8959C62.2489 6.78762 62.4051 6.71745 62.5713 6.69331L66.4566 6.12901L68.1936 2.60911Z" fill="url(#paint3_linear_104_8874)"/>
<path d="M88.1936 2.60911C88.2679 2.45839 88.3828 2.33147 88.5255 2.24272C88.6682 2.15397 88.8329 2.10693 89.0009 2.10693C89.1689 2.10693 89.3336 2.15397 89.4763 2.24272C89.6189 2.33147 89.7339 2.45839 89.8082 2.60911L91.5452 6.12901L95.4305 6.69331C95.5967 6.71745 95.7529 6.78762 95.8813 6.8959C96.0097 7.00418 96.1053 7.14623 96.1571 7.30599C96.209 7.46575 96.2152 7.63684 96.1749 7.79991C96.1346 7.96298 96.0494 8.11151 95.9291 8.22871L93.1175 10.9692L93.7817 14.8383C93.81 15.0038 93.7915 15.174 93.7282 15.3295C93.665 15.485 93.5594 15.6198 93.4236 15.7185C93.2877 15.8172 93.1269 15.8759 92.9594 15.888C92.792 15.9001 92.6244 15.8651 92.4758 15.7869L89.0018 13.9599L85.526 15.7869C85.3774 15.8648 85.21 15.8996 85.0426 15.8874C84.8753 15.8752 84.7147 15.8164 84.579 15.7178C84.4433 15.6191 84.3378 15.4845 84.2746 15.3291C84.2113 15.1737 84.1928 15.0037 84.221 14.8383L84.8843 10.9683L82.0727 8.22871C81.9524 8.11151 81.8672 7.96298 81.8269 7.79991C81.7866 7.63684 81.7928 7.46575 81.8446 7.30599C81.8965 7.14623 81.9921 7.00418 82.1205 6.8959C82.2489 6.78762 82.4051 6.71745 82.5713 6.69331L86.4566 6.12901L88.1936 2.60911Z" fill="url(#paint4_linear_104_8874)"/>
<defs>
<linearGradient id="paint0_linear_104_8874" x1="16.2" y1="16.2" x2="1.39499" y2="2.22931" gradientUnits="userSpaceOnUse">
<stop stop-color="#FF6F47"/>
<stop offset="1" stop-color="#FFCD0F"/>
</linearGradient>
<linearGradient id="paint1_linear_104_8874" x1="36.2" y1="16.2" x2="21.395" y2="2.22931" gradientUnits="userSpaceOnUse">
<stop stop-color="#FF6F47"/>
<stop offset="1" stop-color="#FFCD0F"/>
</linearGradient>
<linearGradient id="paint2_linear_104_8874" x1="56.2" y1="16.2" x2="41.395" y2="2.22931" gradientUnits="userSpaceOnUse">
<stop stop-color="#FF6F47"/>
<stop offset="1" stop-color="#FFCD0F"/>
</linearGradient>
<linearGradient id="paint3_linear_104_8874" x1="76.2" y1="16.2" x2="61.395" y2="2.22931" gradientUnits="userSpaceOnUse">
<stop stop-color="#FF6F47"/>
<stop offset="1" stop-color="#FFCD0F"/>
</linearGradient>
<linearGradient id="paint4_linear_104_8874" x1="96.2" y1="16.2" x2="81.395" y2="2.22931" gradientUnits="userSpaceOnUse">
<stop stop-color="#FF6F47"/>
<stop offset="1" stop-color="#FFCD0F"/>
</linearGradient>
</defs>
</svg>
