<svg width="32" height="32" viewBox="0 0 32 32" fill="none" xmlns="http://www.w3.org/2000/svg">
<path d="M17.9986 2.6665H11.332C10.2275 2.6665 9.33203 3.56193 9.33203 4.6665C9.33203 5.77108 10.2275 6.6665 11.332 6.6665H17.9986C19.1033 6.6665 19.9986 5.77108 19.9986 4.6665C19.9986 3.56193 19.1033 2.6665 17.9986 2.6665Z" stroke="#EC4899" stroke-width="2" stroke-linecap="round" stroke-linejoin="round"/>
<path d="M9.33203 19.9998H13.9034M9.33203 14.6665H19.9986" stroke="#EC4899" stroke-width="2" stroke-linecap="round" stroke-linejoin="round"/>
<path d="M25.3294 17.3325L25.3295 12.6433C25.3295 8.87216 25.3295 6.98656 24.1579 5.815C23.3028 4.95993 22.0674 4.72892 19.9962 4.6665M18.6627 29.3325H11.9961C8.22487 29.3325 6.33924 29.3325 5.16768 28.1609C3.99611 26.9893 3.99609 25.1037 3.99609 21.3325L3.99611 12.6434C3.99609 8.87217 3.99609 6.98656 5.16767 5.81498C6.02272 4.95993 7.25811 4.72892 9.32929 4.6665" stroke="#EC4899" stroke-width="2" stroke-linecap="round" stroke-linejoin="round"/>
<path d="M27.9961 25.3335H23.9961M23.9961 25.3335H19.9961M23.9961 25.3335V29.3335M23.9961 25.3335V21.3335" stroke="#EC4899" stroke-width="2" stroke-linecap="round" stroke-linejoin="round"/>
</svg>
