<svg width="40" height="40" viewBox="0 0 40 40" fill="none" xmlns="http://www.w3.org/2000/svg">
<rect width="40" height="40" rx="12" fill="white" fill-opacity="0.1"/>
<path d="M15.539 29.7501C24.596 29.7501 29.5505 22.2456 29.5505 15.7491C29.5525 15.5381 29.5495 15.3271 29.5415 15.1161C30.5058 14.4174 31.3382 13.553 32 12.5631C31.0987 12.9595 30.144 13.2213 29.1665 13.3401C30.1964 12.7246 30.9677 11.7561 31.337 10.6146C30.3699 11.1886 29.3108 11.5911 28.2065 11.8041C27.4643 11.0136 26.4821 10.4899 25.4121 10.3142C24.3421 10.1385 23.2441 10.3204 22.288 10.832C21.3319 11.3435 20.5712 12.156 20.1237 13.1437C19.6761 14.1313 19.5668 15.239 19.8125 16.2951C17.8545 16.1974 15.939 15.6889 14.1902 14.8028C12.4415 13.9167 10.8987 12.6727 9.662 11.1516C9.03437 12.2363 8.84293 13.5191 9.12651 14.7398C9.4101 15.9605 10.1475 17.0276 11.189 17.7246C10.4081 17.6993 9.64429 17.4896 8.96 17.1126V17.1801C8.96191 18.3161 9.35573 19.4168 10.075 20.2962C10.7942 21.1755 11.7949 21.7799 12.908 22.0071C12.4854 22.1235 12.0488 22.1816 11.6105 22.1796C11.3014 22.1828 10.9927 22.1541 10.6895 22.0941C11.0036 23.0725 11.6162 23.928 12.4413 24.5406C13.2663 25.1532 14.2625 25.492 15.29 25.5096C13.5442 26.879 11.3889 27.6223 9.17 27.6201C8.77895 27.623 8.38812 27.6005 8 27.5526C10.2521 28.9888 12.8679 29.7512 15.539 29.7501Z" fill="white"/>
</svg>
