<svg width="32" height="32" viewBox="0 0 32 32" fill="none" xmlns="http://www.w3.org/2000/svg">
<path d="M20.6654 14.6667C20.6654 12.0893 18.576 10 15.9987 10C13.4214 10 11.332 12.0893 11.332 14.6667C11.332 17.244 13.4214 19.3333 15.9987 19.3333C18.576 19.3333 20.6654 17.244 20.6654 14.6667Z" stroke="#08BD4D" stroke-width="2" stroke-linecap="round" stroke-linejoin="round"/>
<path d="M20.6427 15.1332C21.072 15.2633 21.5273 15.3333 21.9991 15.3333C24.5764 15.3333 26.6657 13.244 26.6657 10.6667C26.6657 8.08933 24.5764 6 21.9991 6C19.5792 6 17.5895 7.84187 17.3555 10.2002" stroke="#08BD4D" stroke-width="2" stroke-linecap="round" stroke-linejoin="round"/>
<path d="M14.6423 10.2002C14.4083 7.84187 12.4186 6 9.9987 6C7.42136 6 5.33203 8.08933 5.33203 10.6667C5.33203 13.244 7.42136 15.3333 9.9987 15.3333C10.4704 15.3333 10.9258 15.2633 11.3551 15.1332" stroke="#08BD4D" stroke-width="2" stroke-linecap="round" stroke-linejoin="round"/>
<path d="M29.3333 22C29.3333 18.3182 26.0501 15.3334 22 15.3334" stroke="#08BD4D" stroke-width="2" stroke-linecap="round" stroke-linejoin="round"/>
<path d="M23.3346 26C23.3346 22.3182 20.0514 19.3334 16.0013 19.3334C11.9512 19.3334 8.66797 22.3182 8.66797 26" stroke="#08BD4D" stroke-width="2" stroke-linecap="round" stroke-linejoin="round"/>
<path d="M10.0013 15.3334C5.95121 15.3334 2.66797 18.3182 2.66797 22" stroke="#08BD4D" stroke-width="2" stroke-linecap="round" stroke-linejoin="round"/>
</svg>
